<?xml version="1.0" standalone="no"?>
<!DOCTYPE svg PUBLIC "-//W3C//DTD SVG 20010904//EN"
 "http://www.w3.org/TR/2001/REC-SVG-20010904/DTD/svg10.dtd">
<svg xmlns="http://www.w3.org/2000/svg" version="1.0" width="512.000000px" height="512.000000px" viewBox="0 0 512.000000 512.000000" preserveAspectRatio="xMidYMid meet">

<g transform="translate(0.000000,512.000000) scale(0.100000,-0.100000)" fill="#000000" stroke="none">
<path d="M1682 4867 c-42 -13 -1349 -993 -1389 -1041 -70 -86 -70 -206 0 -292 34 -40 1332 -1019 1375 -1036 93 -36 185 -16 257 56 93 94 101 219 19 314 -18 21 -262 211 -543 421 -281 211 -511 387 -511 391 0 4 230 180 511 391 281 210 525 400 543 421 82 95 74 220 -19 313 -69 70 -153 91 -243 62z" style="&#10;    fill: #ffffff;&#10;"/>
<path d="M1308 3802 c-87 -64 -157 -119 -157 -122 0 -3 70 -57 157 -121 l157 -116 125 -7 c625 -34 1209 -256 1700 -646 134 -107 353 -326 459 -459 402 -507 623 -1098 647 -1731 7 -192 15 -223 78 -285 74 -74 152 -92 249 -59 57 19 128 93 145 152 22 71 11 320 -24 567 -171 1209 -998 2254 -2138 2704 -324 128 -651 203 -1005 230 -243 19 -213 28 -393 -107z" style="fill: #ffffff;"/>
</g>
</svg>