<svg xmlns:dc="http://purl.org/dc/elements/1.1/" xmlns:cc="http://creativecommons.org/ns#" xmlns:rdf="http://www.w3.org/1999/02/22-rdf-syntax-ns#" xmlns:svg="http://www.w3.org/2000/svg" xmlns="http://www.w3.org/2000/svg" xmlns:sodipodi="http://sodipodi.sourceforge.net/DTD/sodipodi-0.dtd" xmlns:inkscape="http://www.inkscape.org/namespaces/inkscape" style="background: transparent;" version="1.1" id="svg2" xml:space="preserve" width="1000px" height="666.66669px" viewBox="0 0 1000 666.66669" sodipodi:docname="4027795.ai"><metadata id="metadata8"><rdf:RDF><cc:Work rdf:about=""><dc:format>image/svg+xml</dc:format><dc:type rdf:resource="http://purl.org/dc/dcmitype/StillImage"/></cc:Work></rdf:RDF></metadata><defs id="defs6"><clipPath clipPathUnits="userSpaceOnUse" id="clipPath20"><path d="M 0,500 H 750 V 0 H 0 Z" id="path18"/></clipPath></defs><sodipodi:namedview pagecolor="#ffffff" bordercolor="#666666" borderopacity="1" objecttolerance="10" gridtolerance="10" guidetolerance="10" inkscape:pageopacity="0" inkscape:pageshadow="2" inkscape:window-width="640" inkscape:window-height="480" id="namedview4"/><g id="g10" inkscape:groupmode="layer" inkscape:label="4027795" transform="matrix(1.3333333,0,0,-1.3333333,0,666.66667)"><path d="M 0,0 H 750 V 500 H 0 Z" style="fill:transparent;fill-opacity:1;fill-rule:nonzero;stroke:none" id="path12"/><g id="g14"><g id="g16" clip-path="url(#clipPath20)"><g id="g22" transform="translate(105.8369,44.9258)"><path d="m 0,0 c 0,0 -57.837,35.589 -51.327,107.074 5.902,64.823 48.162,76.168 75.358,154.084 27.197,77.916 -0.216,143.067 73.943,165.736 56.147,17.162 114.402,-62.873 234.232,-59.898 119.83,2.974 177.723,41.719 221.29,-12.239 38.27,-47.395 -21.333,-88.55 -16.666,-151.089 2.601,-34.855 27.177,-53.84 34.333,-107.406 C 574.425,71.843 569.496,25.75 546.103,0 H 37.775" style="fill: #191720;fill-opacity:1;fill-rule:nonzero;stroke:none;" id="path24"/></g><g id="g26" transform="translate(73,44.9258)"><path d="M 0,0 H 604" style="fill:none;stroke:#badce7;stroke-width:1;stroke-linecap:butt;stroke-linejoin:miter;stroke-miterlimit:10;stroke-dasharray:none;stroke-opacity:1" id="path28"/></g><g id="g30" transform="translate(178.7227,374.0854)"><path d="m 0,0 c 0,-28.77 -23.322,-52.092 -52.092,-52.092 -28.769,0 -52.093,23.322 -52.093,52.092 0,28.77 23.324,52.092 52.093,52.092 C -23.322,52.092 0,28.77 0,0" style="fill: #17C4EE;fill-opacity:1;fill-rule:nonzero;stroke:none;" id="path32"/></g><g id="g34" transform="translate(170.501,374.0854)"><path d="m 0,0 c 0,-24.229 -19.642,-43.87 -43.87,-43.87 -24.23,0 -43.87,19.641 -43.87,43.87 0,24.229 19.64,43.87 43.87,43.87 C -19.642,43.87 0,24.229 0,0" style="fill: rgb(17, 17, 19);fill-opacity:1;fill-rule:nonzero;stroke:none;" id="path36"/></g><g id="g38" transform="translate(162.5557,374.0854)"><path d="m 0,0 c 0,-19.841 -16.084,-35.925 -35.925,-35.925 -19.842,0 -35.926,16.084 -35.926,35.925 0,19.841 16.084,35.925 35.926,35.925 C -16.084,35.925 0,19.841 0,0" style="fill: #17C4EE;fill-opacity:1;fill-rule:nonzero;stroke:none;" id="path40"/></g><g id="g42" transform="translate(142.6934,374.0854)"><path d="m 0,0 c 0,-8.872 -7.191,-16.063 -16.062,-16.063 -8.873,0 -16.064,7.191 -16.064,16.063 0,8.871 7.191,16.063 16.064,16.063 C -7.191,16.063 0,8.871 0,0" style="fill: rgb(17, 17, 19);fill-opacity:1;fill-rule:nonzero;stroke:none;" id="path44"/></g><g id="g46" transform="translate(135.1455,374.0854)"><path d="m 0,0 c 0,-4.703 -3.813,-8.516 -8.515,-8.516 -4.703,0 -8.515,3.813 -8.515,8.516 0,4.703 3.812,8.515 8.515,8.515 C -3.813,8.515 0,4.703 0,0" style="fill:#badce7;fill-opacity:1;fill-rule:nonzero;stroke:none" id="path48"/></g><g id="g50" transform="translate(62.2783,334.3984)"><path d="m 0,0 -7.613,-4.313 6.509,-2.022 7.614,4.314 z" style="fill: #1298b9;fill-opacity:1;fill-rule:nonzero;stroke:none;" id="path52"/></g><g id="g54" transform="translate(67.1758,325.7544)"><path d="m 0,0 -7.613,-4.313 1.611,6.622 7.614,4.314 z" style="fill: #1298b9;fill-opacity:1;fill-rule:nonzero;stroke:none;" id="path56"/></g><g id="g58" transform="translate(63.9209,329.6196)"><path d="m 0,0 c -0.676,1.193 6.674,6.636 18.135,13.129 11.459,6.493 28.17,13.105 28.17,13.105 0,0 -14.262,-10.934 -25.722,-17.427 C 9.123,2.314 0.677,-1.193 0,0" style="fill: #1298b9;fill-opacity:1;fill-rule:nonzero;stroke:none;" id="path60"/></g><g id="g62" transform="translate(61.1738,328.0635)"><path d="m 0,0 c 3.989,2.49 8.031,4.887 12.08,7.27 4.049,2.385 8.14,4.695 12.207,7.046 4.107,2.283 8.192,4.602 12.318,6.851 4.126,2.248 8.26,4.483 12.447,6.624 C 45.063,25.299 41.021,22.903 36.973,20.519 32.923,18.136 28.833,15.823 24.765,13.475 20.657,11.194 16.573,8.872 12.446,6.625 8.32,4.376 4.187,2.142 0,0" style="fill:#badce7;fill-opacity:1;fill-rule:nonzero;stroke:none" id="path64"/></g><g id="g66" transform="translate(90.083,411.2231)"><path d="m 0,0 -6.669,5.665 0.341,-6.808 6.67,-5.664 z" style="fill: #1298b9;fill-opacity:1;fill-rule:nonzero;stroke:none;" id="path68"/></g><g id="g70" transform="translate(83.6514,403.6509)"><path d="M 0,0 -6.669,5.665 0.104,6.43 6.773,0.765 Z" style="fill: #1298b9;fill-opacity:1;fill-rule:nonzero;stroke:none;" id="path72"/></g><g id="g74" transform="translate(86.1611,408.0371)"><path d="m 0,0 c 0.889,1.045 8.527,-3.984 18.566,-12.511 10.039,-8.527 21.997,-21.942 21.997,-21.942 0,0 -15.173,9.629 -25.212,18.156 C 5.312,-7.77 -0.888,-1.045 0,0" style="fill: #1298b9;fill-opacity:1;fill-rule:nonzero;stroke:none;" id="path76"/></g><g id="g78" transform="translate(83.7549,410.0806)"><path d="m 0,0 c 3.71,-2.889 7.352,-5.859 10.982,-8.841 3.633,-2.981 7.208,-6.028 10.816,-9.039 3.556,-3.07 7.139,-6.108 10.67,-9.208 3.53,-3.101 7.051,-6.214 10.501,-9.409 -3.711,2.889 -7.352,5.859 -10.984,8.841 -3.63,2.983 -7.208,6.027 -10.813,9.039 -3.555,3.073 -7.141,6.108 -10.669,9.211 C 6.972,-6.306 3.452,-3.193 0,0" style="fill:#badce7;fill-opacity:1;fill-rule:nonzero;stroke:none" id="path80"/></g><g id="g82" transform="translate(189.9277,215.998)"><path d="m 0,0 v 191.109 c 0,10.316 8.363,18.679 18.679,18.679 h 332.787 c 10.315,0 18.679,-8.363 18.679,-18.679 L 370.145,0 c 0,-10.315 -8.364,-18.679 -18.679,-18.679 H 18.679 C 8.363,-18.679 0,-10.315 0,0" style="fill: #17C4EE;fill-opacity:1;fill-rule:nonzero;stroke:none;" id="path84"/></g><g id="g86" transform="translate(209.6064,201.3193)"><path d="m 0,0 c -8.659,0 -15.679,7.02 -15.679,15.679 v 189.787 c 0,8.284 6.716,15 15,15 h 332.145 c 8.284,0 15,-6.716 15,-15 V 15.679 C 346.466,7.02 339.446,0 330.787,0 Z" style="fill: rgb(17, 17, 19);fill-opacity:1;fill-rule:nonzero;stroke:none;" id="path88"/></g><g id="g90" transform="translate(208.1465,421.7856)"><path d="m 0,0 h 332.926 c 8.284,0 15,-6.716 15,-15 V -27.077 H -15 V -15 c 0,8.284 6.716,15 15,15" style="fill: #14a6c9;fill-opacity:1;fill-rule:nonzero;stroke:none;" id="path92"/></g><g id="g94" transform="translate(217.0098,408.2476)"><path d="m 0,0 c 0,-1.911 -1.549,-3.46 -3.46,-3.46 -1.91,0 -3.46,1.549 -3.46,3.46 0,1.911 1.55,3.46 3.46,3.46 C -1.549,3.46 0,1.911 0,0" style="fill:#d6edf1;fill-opacity:1;fill-rule:nonzero;stroke:none" id="path96"/></g><g id="g98" transform="translate(237.624,408.2476)"><path d="m 0,0 c 0,-1.911 -1.55,-3.46 -3.46,-3.46 -1.911,0 -3.46,1.549 -3.46,3.46 0,1.911 1.549,3.46 3.46,3.46 C -1.55,3.46 0,1.911 0,0" style="fill:#d6edf1;fill-opacity:1;fill-rule:nonzero;stroke:none" id="path100"/></g><g id="g102" transform="translate(258.2373,408.2476)"><path d="m 0,0 c 0,-1.911 -1.549,-3.46 -3.46,-3.46 -1.91,0 -3.46,1.549 -3.46,3.46 0,1.911 1.55,3.46 3.46,3.46 C -1.549,3.46 0,1.911 0,0" style="fill:#d6edf1;fill-opacity:1;fill-rule:nonzero;stroke:none" id="path104"/></g><g id="g106" transform="translate(212.6426,237.6045)"><path d="M 0,0 H 206.5" style="fill:none;stroke: #7CFECF;stroke-width:3;stroke-linecap:round;stroke-linejoin:round;stroke-miterlimit:10;stroke-dasharray:none;stroke-opacity:1;" id="path108"/></g><g id="g110" transform="translate(212.6426,225.6953)"><path d="M 0,0 H 161.307" style="fill:none;stroke: #7CFECF;stroke-width:3;stroke-linecap:round;stroke-linejoin:round;stroke-miterlimit:10;stroke-dasharray:none;stroke-opacity:1;" id="path112"/></g><g id="g114" transform="translate(212.6426,213.7861)"><path d="M 0,0 H 100.44" style="fill:none;stroke: #7CFECF;stroke-width:3;stroke-linecap:round;stroke-linejoin:round;stroke-miterlimit:10;stroke-dasharray:none;stroke-opacity:1;" id="path116"/></g><g id="g118" transform="translate(448.1777,237.6045)"><path d="M 0,0 H 19.09" style="fill:none;stroke: #7CFECF;stroke-width:3;stroke-linecap:round;stroke-linejoin:round;stroke-miterlimit:10;stroke-dasharray:none;stroke-opacity:1;" id="path120"/></g><g id="g122" transform="translate(448.1777,225.6953)"><path d="M 0,0 H 19.09" style="fill:none;stroke: #7CFECF;stroke-width:3;stroke-linecap:round;stroke-linejoin:round;stroke-miterlimit:10;stroke-dasharray:none;stroke-opacity:1;" id="path124"/></g><g id="g126" transform="translate(448.1777,213.7861)"><path d="M 0,0 H 19.09" style="fill:none;stroke: #7CFECF;stroke-width:3;stroke-linecap:round;stroke-linejoin:round;stroke-miterlimit:10;stroke-dasharray:none;stroke-opacity:1;" id="path128"/></g><g id="g130" transform="translate(483.2227,237.6045)"><path d="M 0,0 H 19.09" style="fill:none;stroke: #7CFECF;stroke-width:3;stroke-linecap:round;stroke-linejoin:round;stroke-miterlimit:10;stroke-dasharray:none;stroke-opacity:1;" id="path132"/></g><g id="g134" transform="translate(483.2227,225.6953)"><path d="M 0,0 H 19.09" style="fill:none;stroke: #7CFECF;stroke-width:3;stroke-linecap:round;stroke-linejoin:round;stroke-miterlimit:10;stroke-dasharray:none;stroke-opacity:1;" id="path136"/></g><g id="g138" transform="translate(483.2227,213.7861)"><path d="M 0,0 H 19.09" style="fill:none;stroke:#badce7;stroke-width:3;stroke-linecap:round;stroke-linejoin:round;stroke-miterlimit:10;stroke-dasharray:none;stroke-opacity:1" id="path140"/></g><g id="g142" transform="translate(518.2676,237.6045)"><path d="M 0,0 H 19.09" style="fill:none;stroke:#badce7;stroke-width:3;stroke-linecap:round;stroke-linejoin:round;stroke-miterlimit:10;stroke-dasharray:none;stroke-opacity:1" id="path144"/></g><g id="g146" transform="translate(518.2676,225.6953)"><path d="M 0,0 H 19.09" style="fill:none;stroke:#badce7;stroke-width:3;stroke-linecap:round;stroke-linejoin:round;stroke-miterlimit:10;stroke-dasharray:none;stroke-opacity:1" id="path148"/></g><g id="g150" transform="translate(518.2676,213.7861)"><path d="M 0,0 H 19.09" style="fill:none;stroke:#badce7;stroke-width:3;stroke-linecap:round;stroke-linejoin:round;stroke-miterlimit:10;stroke-dasharray:none;stroke-opacity:1" id="path152"/></g><g id="g154" transform="translate(535.9629,388.0322)"><path d="M 0,0 V -45.843" style="fill:none;stroke: #17C4EE;stroke-width:0.79;stroke-linecap:butt;stroke-linejoin:miter;stroke-miterlimit:10;stroke-dasharray:none;stroke-opacity:1;" id="path156"/></g><g id="g158" transform="translate(535.9629,373.8091)"><path d="M 0,0 V -20.864" style="fill:none;stroke: #17C4EE;stroke-width:6.322;stroke-linecap:butt;stroke-linejoin:miter;stroke-miterlimit:10;stroke-dasharray:none;stroke-opacity:1;" id="path160"/></g><g id="g162" transform="translate(525.7793,380.2739)"><path d="M 0,0 V -45.842" style="fill:none;stroke: #17C4EE;stroke-width:0.79;stroke-linecap:butt;stroke-linejoin:miter;stroke-miterlimit:10;stroke-dasharray:none;stroke-opacity:1;" id="path164"/></g><g id="g166" transform="translate(525.7793,358.9395)"><path d="M 0,0 V -13.752" style="fill:none;stroke: #17C4EE;stroke-width:6.322;stroke-linecap:butt;stroke-linejoin:miter;stroke-miterlimit:10;stroke-dasharray:none;stroke-opacity:1;" id="path168"/></g><g id="g170" transform="translate(515.5967,376.2466)"><path d="M 0,0 V -45.842" style="fill:none;stroke: #A8EC93;stroke-width:0.79;stroke-linecap:butt;stroke-linejoin:miter;stroke-miterlimit:10;stroke-dasharray:none;stroke-opacity:1;" id="path172"/></g><g id="g174" transform="translate(515.5967,352.8848)"><path d="M 0,0 V -21.511" style="fill:none;stroke: #A8EC93;stroke-width:6.322;stroke-linecap:butt;stroke-linejoin:miter;stroke-miterlimit:10;stroke-dasharray:none;stroke-opacity:1;" id="path176"/></g><g id="g178" transform="translate(505.4131,378.5112)"><path d="M 0,0 V -45.843" style="fill:none;stroke: #17C4EE;stroke-width:0.79;stroke-linecap:butt;stroke-linejoin:miter;stroke-miterlimit:10;stroke-dasharray:none;stroke-opacity:1;" id="path180"/></g><g id="g182" transform="translate(505.4131,371.811)"><path d="M 0,0 V -28.387" style="fill:none;stroke: #17C4EE;stroke-width:6.322;stroke-linecap:butt;stroke-linejoin:miter;stroke-miterlimit:10;stroke-dasharray:none;stroke-opacity:1;" id="path184"/></g><g id="g186" transform="translate(495.2295,362.8247)"><path d="M 0,0 V -34.382" style="fill:none;stroke: #17C4EE;stroke-width:0.79;stroke-linecap:butt;stroke-linejoin:miter;stroke-miterlimit:10;stroke-dasharray:none;stroke-opacity:1;" id="path188"/></g><g id="g190" transform="translate(495.2295,353.9502)"><path d="M 0,0 V -15.164" style="fill:none;stroke: #17C4EE;stroke-width:6.322;stroke-linecap:butt;stroke-linejoin:miter;stroke-miterlimit:10;stroke-dasharray:none;stroke-opacity:1;" id="path192"/></g><g id="g194" transform="translate(485.0459,357.8877)"><path d="M 0,0 V -40.906" style="fill:none;stroke: #A8EC93;stroke-width:0.79;stroke-linecap:butt;stroke-linejoin:miter;stroke-miterlimit:10;stroke-dasharray:none;stroke-opacity:1;" id="path196"/></g><g id="g198" transform="translate(485.0459,347.1323)"><path d="M 0,0 V -24.332" style="fill:none;stroke: #A8EC93;stroke-width:6.322;stroke-linecap:butt;stroke-linejoin:miter;stroke-miterlimit:10;stroke-dasharray:none;stroke-opacity:1;" id="path200"/></g><g id="g202" transform="translate(474.8623,365.1167)"><path d="M 0,0 V -35.616" style="fill:none;stroke: #17C4EE;stroke-width:0.79;stroke-linecap:butt;stroke-linejoin:miter;stroke-miterlimit:10;stroke-dasharray:none;stroke-opacity:1;" id="path204"/></g><g id="g206" transform="translate(474.8623,356.771)"><path d="M 0,0 V -20.218" style="fill:none;stroke: #17C4EE;stroke-width:6.322;stroke-linecap:butt;stroke-linejoin:miter;stroke-miterlimit:10;stroke-dasharray:none;stroke-opacity:1;" id="path208"/></g><g id="g210" transform="translate(464.6787,379.3984)"><path d="M 0,0 V -42.669" style="fill:none;stroke: #17C4EE;stroke-width:0.79;stroke-linecap:butt;stroke-linejoin:miter;stroke-miterlimit:10;stroke-dasharray:none;stroke-opacity:1;" id="path212"/></g><g id="g214" transform="translate(464.6787,371.1113)"><path d="M 0,0 V -26.8" style="fill:none;stroke: #17C4EE;stroke-width:6.322;stroke-linecap:butt;stroke-linejoin:miter;stroke-miterlimit:10;stroke-dasharray:none;stroke-opacity:1;" id="path216"/></g><g id="g218" transform="translate(454.4951,359.2183)"><path d="M 0,0 V -33.853" style="fill:none;stroke: #17C4EE;stroke-width:0.79;stroke-linecap:butt;stroke-linejoin:miter;stroke-miterlimit:10;stroke-dasharray:none;stroke-opacity:1;" id="path220"/></g><g id="g222" transform="translate(454.4951,351.1074)"><path d="M 0,0 V -16.397" style="fill:none;stroke: #17C4EE;stroke-width:6.322;stroke-linecap:butt;stroke-linejoin:miter;stroke-miterlimit:10;stroke-dasharray:none;stroke-opacity:1;" id="path224"/></g><g id="g226" transform="translate(444.3115,345.3633)"><path d="M 0,0 V -34.029" style="fill:none;stroke: #A8EC93;stroke-width:0.79;stroke-linecap:butt;stroke-linejoin:miter;stroke-miterlimit:10;stroke-dasharray:none;stroke-opacity:1;" id="path228"/></g><g id="g230" transform="translate(444.3115,334.6079)"><path d="M 0,0 V -12.519" style="fill:none;stroke: #A8EC93;stroke-width:6.322;stroke-linecap:butt;stroke-linejoin:miter;stroke-miterlimit:10;stroke-dasharray:none;stroke-opacity:1;" id="path232"/></g><g id="g234" transform="translate(434.1279,354.1792)"><path d="M 0,0 V -34.734" style="fill:none;stroke: #17C4EE;stroke-width:0.79;stroke-linecap:butt;stroke-linejoin:miter;stroke-miterlimit:10;stroke-dasharray:none;stroke-opacity:1;" id="path236"/></g><g id="g238" transform="translate(434.1279,343.4238)"><path d="M 0,0 V -13.106" style="fill:none;stroke: #17C4EE;stroke-width:6.322;stroke-linecap:butt;stroke-linejoin:miter;stroke-miterlimit:10;stroke-dasharray:none;stroke-opacity:1;" id="path240"/></g><g id="g242" transform="translate(423.9443,345.3633)"><path d="M 0,0 V -42.14" style="fill:none;stroke: #A8EC93;stroke-width:0.79;stroke-linecap:butt;stroke-linejoin:miter;stroke-miterlimit:10;stroke-dasharray:none;stroke-opacity:1;" id="path244"/></g><g id="g246" transform="translate(423.9443,334.6079)"><path d="M 0,0 V -24.332" style="fill:none;stroke: #A8EC93;stroke-width:6.322;stroke-linecap:butt;stroke-linejoin:miter;stroke-miterlimit:10;stroke-dasharray:none;stroke-opacity:1;" id="path248"/></g><g id="g250" transform="translate(413.7607,345.3633)"><path d="M 0,0 V -29.181" style="fill:none;stroke: #17C4EE;stroke-width:0.79;stroke-linecap:butt;stroke-linejoin:miter;stroke-miterlimit:10;stroke-dasharray:none;stroke-opacity:1;" id="path252"/></g><g id="g254" transform="translate(413.7607,334.6079)"><path d="M 0,0 V -11.872" style="fill:none;stroke: #17C4EE;stroke-width:6.322;stroke-linecap:butt;stroke-linejoin:miter;stroke-miterlimit:10;stroke-dasharray:none;stroke-opacity:1;" id="path256"/></g><g id="g258" transform="translate(403.5771,349.9473)"><path d="M 0,0 V -30.502" style="fill:none;stroke: #17C4EE;stroke-width:0.79;stroke-linecap:butt;stroke-linejoin:miter;stroke-miterlimit:10;stroke-dasharray:none;stroke-opacity:1;" id="path260"/></g><g id="g262" transform="translate(403.5771,339.1919)"><path d="M 0,0 V -8.875" style="fill:none;stroke: #17C4EE;stroke-width:6.322;stroke-linecap:butt;stroke-linejoin:miter;stroke-miterlimit:10;stroke-dasharray:none;stroke-opacity:1;" id="path264"/></g><g id="g266" transform="translate(393.3936,345.3633)"><path d="M 0,0 V -58.361" style="fill:none;stroke: #A8EC93;stroke-width:0.79;stroke-linecap:butt;stroke-linejoin:miter;stroke-miterlimit:10;stroke-dasharray:none;stroke-opacity:1;" id="path268"/></g><g id="g270" transform="translate(393.3936,334.6079)"><path d="M 0,0 V -41.258" style="fill:none;stroke: #A8EC93;stroke-width:6.322;stroke-linecap:butt;stroke-linejoin:miter;stroke-miterlimit:10;stroke-dasharray:none;stroke-opacity:1;" id="path272"/></g><g id="g274" transform="translate(383.21,328.9658)"><path d="M 0,0 V -45.842" style="fill:none;stroke: #17C4EE;stroke-width:0.79;stroke-linecap:butt;stroke-linejoin:miter;stroke-miterlimit:10;stroke-dasharray:none;stroke-opacity:1;" id="path276"/></g><g id="g278" transform="translate(383.21,318.2104)"><path d="M 0,0 V -24.332" style="fill:none;stroke: #17C4EE;stroke-width:6.322;stroke-linecap:butt;stroke-linejoin:miter;stroke-miterlimit:10;stroke-dasharray:none;stroke-opacity:1;" id="path280"/></g><g id="g282" transform="translate(373.0264,327.0264)"><path d="M 0,0 V -52.19" style="fill:none;stroke: #17C4EE;stroke-width:0.79;stroke-linecap:butt;stroke-linejoin:miter;stroke-miterlimit:10;stroke-dasharray:none;stroke-opacity:1;" id="path284"/></g><g id="g286" transform="translate(373.0264,317.1523)"><path d="M 0,0 V -31.561" style="fill:none;stroke: #17C4EE;stroke-width:6.322;stroke-linecap:butt;stroke-linejoin:miter;stroke-miterlimit:10;stroke-dasharray:none;stroke-opacity:1;" id="path288"/></g><g id="g290" transform="translate(362.8428,297.0508)"><path d="M 0,0 V -42.316" style="fill:none;stroke: #A8EC93;stroke-width:0.79;stroke-linecap:butt;stroke-linejoin:miter;stroke-miterlimit:10;stroke-dasharray:none;stroke-opacity:1;" id="path292"/></g><g id="g294" transform="translate(362.8428,289.8218)"><path d="M 0,0 V -24.332" style="fill:none;stroke: #A8EC93;stroke-width:6.322;stroke-linecap:butt;stroke-linejoin:miter;stroke-miterlimit:10;stroke-dasharray:none;stroke-opacity:1;" id="path296"/></g><g id="g298" transform="translate(352.6602,337.8257)"><path d="M 0,0 V -45.842" style="fill:none;stroke: #A8EC93;stroke-width:0.79;stroke-linecap:butt;stroke-linejoin:miter;stroke-miterlimit:10;stroke-dasharray:none;stroke-opacity:1;" id="path300"/></g><g id="g302" transform="translate(352.6602,327.0703)"><path d="M 0,0 V -29.974" style="fill:none;stroke: #A8EC93;stroke-width:6.322;stroke-linecap:butt;stroke-linejoin:miter;stroke-miterlimit:10;stroke-dasharray:none;stroke-opacity:1;" id="path304"/></g><g id="g306" transform="translate(342.4756,334.0791)"><path d="M 0,0 V -45.843" style="fill:none;stroke: #17C4EE;stroke-width:0.79;stroke-linecap:butt;stroke-linejoin:miter;stroke-miterlimit:10;stroke-dasharray:none;stroke-opacity:1;" id="path308"/></g><g id="g310" transform="translate(342.4756,316.7998)"><path d="M 0,0 V -17.808" style="fill:none;stroke: #17C4EE;stroke-width:6.322;stroke-linecap:butt;stroke-linejoin:miter;stroke-miterlimit:10;stroke-dasharray:none;stroke-opacity:1;" id="path312"/></g><g id="g314" transform="translate(332.293,316.7998)"><path d="M 0,0 V -45.842" style="fill:none;stroke: #17C4EE;stroke-width:0.79;stroke-linecap:butt;stroke-linejoin:miter;stroke-miterlimit:10;stroke-dasharray:none;stroke-opacity:1;" id="path316"/></g><g id="g318" transform="translate(332.293,297.2285)"><path d="M 0,0 V -15.516" style="fill:none;stroke: #17C4EE;stroke-width:6.322;stroke-linecap:butt;stroke-linejoin:miter;stroke-miterlimit:10;stroke-dasharray:none;stroke-opacity:1;" id="path320"/></g><g id="g322" transform="translate(322.1094,306.0444)"><path d="M 0,0 V -45.842" style="fill:none;stroke: #A8EC93;stroke-width:0.79;stroke-linecap:butt;stroke-linejoin:miter;stroke-miterlimit:10;stroke-dasharray:none;stroke-opacity:1;" id="path324"/></g><g id="g326" transform="translate(322.1094,283.123)"><path d="M 0,0 V -12.166" style="fill:none;stroke: #A8EC93;stroke-width:6.322;stroke-linecap:butt;stroke-linejoin:miter;stroke-miterlimit:10;stroke-dasharray:none;stroke-opacity:1;" id="path328"/></g><g id="g330" transform="translate(311.9258,312.3921)"><path d="M 0,0 V -45.843" style="fill:none;stroke: #17C4EE;stroke-width:0.79;stroke-linecap:butt;stroke-linejoin:miter;stroke-miterlimit:10;stroke-dasharray:none;stroke-opacity:1;" id="path332"/></g><g id="g334" transform="translate(311.9258,292.1157)"><path d="M 0,0 V -14.811" style="fill:none;stroke: #17C4EE;stroke-width:6.322;stroke-linecap:butt;stroke-linejoin:miter;stroke-miterlimit:10;stroke-dasharray:none;stroke-opacity:1;" id="path336"/></g><g id="g338" transform="translate(301.7422,316.7998)"><path d="M 0,0 V -45.842" style="fill:none;stroke: #17C4EE;stroke-width:0.79;stroke-linecap:butt;stroke-linejoin:miter;stroke-miterlimit:10;stroke-dasharray:none;stroke-opacity:1;" id="path340"/></g><g id="g342" transform="translate(301.7422,300.2261)"><path d="M 0,0 V -18.513" style="fill:none;stroke: #17C4EE;stroke-width:6.322;stroke-linecap:butt;stroke-linejoin:miter;stroke-miterlimit:10;stroke-dasharray:none;stroke-opacity:1;" id="path344"/></g><g id="g346" transform="translate(291.5586,305.5024)"><path d="M 0,0 V -45.843" style="fill:none;stroke: #A8EC93;stroke-width:0.79;stroke-linecap:butt;stroke-linejoin:miter;stroke-miterlimit:10;stroke-dasharray:none;stroke-opacity:1;" id="path348"/></g><g id="g350" transform="translate(291.5586,298.9785)"><path d="M 0,0 V -28.563" style="fill:none;stroke: #A8EC93;stroke-width:6.322;stroke-linecap:butt;stroke-linejoin:miter;stroke-miterlimit:10;stroke-dasharray:none;stroke-opacity:1;" id="path352"/></g><g id="g354" transform="translate(281.375,324.5713)"><path d="M 0,0 V -45.843" style="fill:none;stroke: #17C4EE;stroke-width:0.79;stroke-linecap:butt;stroke-linejoin:miter;stroke-miterlimit:10;stroke-dasharray:none;stroke-opacity:1;" id="path356"/></g><g id="g358" transform="translate(281.375,313.8159)"><path d="M 0,0 V -27.682" style="fill:none;stroke: #17C4EE;stroke-width:6.322;stroke-linecap:butt;stroke-linejoin:miter;stroke-miterlimit:10;stroke-dasharray:none;stroke-opacity:1;" id="path360"/></g><g id="g362" transform="translate(271.1914,343.4297)"><path d="M 0,0 V -45.842" style="fill:none;stroke: #17C4EE;stroke-width:0.79;stroke-linecap:butt;stroke-linejoin:miter;stroke-miterlimit:10;stroke-dasharray:none;stroke-opacity:1;" id="path364"/></g><g id="g366" transform="translate(271.1914,332.6743)"><path d="M 0,0 V -28.034" style="fill:none;stroke: #17C4EE;stroke-width:6.322;stroke-linecap:butt;stroke-linejoin:miter;stroke-miterlimit:10;stroke-dasharray:none;stroke-opacity:1;" id="path368"/></g><g id="g370" transform="translate(261.0078,335.6719)"><path d="M 0,0 V -45.843" style="fill:none;stroke: #A8EC93;stroke-width:0.79;stroke-linecap:butt;stroke-linejoin:miter;stroke-miterlimit:10;stroke-dasharray:none;stroke-opacity:1;" id="path372"/></g><g id="g374" transform="translate(261.0078,327.9136)"><path d="M 0,0 V -27.329" style="fill:none;stroke: #A8EC93;stroke-width:6.322;stroke-linecap:butt;stroke-linejoin:miter;stroke-miterlimit:10;stroke-dasharray:none;stroke-opacity:1;" id="path376"/></g><g id="g378" transform="translate(250.8242,345.187)"><path d="M 0,0 V -45.842" style="fill:none;stroke: #17C4EE;stroke-width:0.79;stroke-linecap:butt;stroke-linejoin:miter;stroke-miterlimit:10;stroke-dasharray:none;stroke-opacity:1;" id="path380"/></g><g id="g382" transform="translate(250.8242,334.4316)"><path d="M 0,0 V -7.582" style="fill:none;stroke: #17C4EE;stroke-width:6.322;stroke-linecap:butt;stroke-linejoin:miter;stroke-miterlimit:10;stroke-dasharray:none;stroke-opacity:1;" id="path384"/></g><g id="g386" transform="translate(240.6406,355.5898)"><path d="M 0,0 V -45.843" style="fill:none;stroke: #17C4EE;stroke-width:0.79;stroke-linecap:butt;stroke-linejoin:miter;stroke-miterlimit:10;stroke-dasharray:none;stroke-opacity:1;" id="path388"/></g><g id="g390" transform="translate(240.6406,344.8345)"><path d="M 0,0 V -12.166" style="fill:none;stroke: #17C4EE;stroke-width:6.322;stroke-linecap:butt;stroke-linejoin:miter;stroke-miterlimit:10;stroke-dasharray:none;stroke-opacity:1;" id="path392"/></g><g id="g394" transform="translate(230.457,333.4619)"><path d="M 0,0 V -54.394" style="fill:none;stroke: #17C4EE;stroke-width:0.79;stroke-linecap:butt;stroke-linejoin:miter;stroke-miterlimit:10;stroke-dasharray:none;stroke-opacity:1;" id="path396"/></g><g id="g398" transform="translate(230.457,327.8198)"><path d="M 0,0 V -37.997" style="fill:none;stroke: #17C4EE;stroke-width:6.322;stroke-linecap:butt;stroke-linejoin:miter;stroke-miterlimit:10;stroke-dasharray:none;stroke-opacity:1;" id="path400"/></g><g id="g402" transform="translate(220.2734,302.3418)"><path d="M 0,0 V -45.842" style="fill:none;stroke: #17C4EE;stroke-width:0.79;stroke-linecap:butt;stroke-linejoin:miter;stroke-miterlimit:10;stroke-dasharray:none;stroke-opacity:1;" id="path404"/></g><g id="g406" transform="translate(220.2734,313.9731)"><path d="M 0,0 V -20.629" style="fill:none;stroke: #17C4EE;stroke-width:6.322;stroke-linecap:butt;stroke-linejoin:miter;stroke-miterlimit:10;stroke-dasharray:none;stroke-opacity:1;" id="path408"/></g><g id="g410" transform="translate(210.0898,305.5098)"><path d="M 0,0 V -45.843" style="fill:none;stroke: #A8EC93;stroke-width:0.79;stroke-linecap:butt;stroke-linejoin:miter;stroke-miterlimit:10;stroke-dasharray:none;stroke-opacity:1;" id="path412"/></g><g id="g414" transform="translate(210.0898,297.2227)"><path d="M 0,0 V -26.8" style="fill:none;stroke: #A8EC93;stroke-width:6.322;stroke-linecap:butt;stroke-linejoin:miter;stroke-miterlimit:10;stroke-dasharray:none;stroke-opacity:1;" id="path416"/></g><g id="g418" transform="translate(645.6211,279.9902)"><path d="M 0,0 -13.53,-20.8 H -38.35 C -37.57,-7.32 -26.39,3.38 -12.71,3.38 -8.09,3.38 -3.75,2.15 0,0" style="fill: #17C4EE;fill-opacity:1;fill-rule:nonzero;stroke:none;" id="path420"/></g><g id="g422" transform="translate(658.5811,257.7002)"><path d="M 0,0 C 0,-4.87 -1.35,-9.41 -3.71,-13.29 L -23.62,0.4 -10.45,20.66 C -4.109,15.99 0,8.47 0,0" style="fill: #A8EC93;fill-opacity:1;fill-rule:nonzero;stroke:none;" id="path424"/></g><g id="g426" transform="translate(653.1611,241.9307)"><path d="m 0,0 c -4.7,-6.03 -12.02,-9.91 -20.25,-9.91 -13.67,0 -24.85,10.689 -25.64,24.17 h 25.17 z" style="fill: #A8EC93;fill-opacity:1;fill-rule:nonzero;stroke:none;" id="path428"/></g><g id="g430" transform="translate(648.8838,70.0332)"><path d="m 0,0 c 0,0 18.55,5.221 17.316,16.962 -1.234,11.741 -15.356,14.1 -7.164,24.5 8.193,10.4 10.452,15.778 4.731,21.27 -5.722,5.492 4.738,9.253 4.295,19.41 C 18.735,92.297 8.592,94.365 2.232,89.852 -4.126,85.338 0.368,77.439 -2.172,71.233 -4.712,65.027 -13.896,62.958 -15.458,55.247 -17.021,47.536 -8.724,41.12 -8.62,35.5 -8.516,29.88 -19.198,23.651 -19.191,15.377 -19.184,7.102 -3.507,0.105 0,0" style="fill:#ff9100;fill-opacity:1;fill-rule:nonzero;stroke:none" id="path432"/></g><g id="g434" transform="translate(650.582,66.6025)"><path d="m 0,0 c -1.118,6.979 -1.71,14.14 -1.978,21.262 -0.249,7.134 -0.093,14.286 0.468,21.409 0.555,7.128 1.73,14.194 3.328,21.165 C 3.48,70.801 5.922,77.555 8.93,84.067 5.75,77.642 3.117,70.93 1.261,63.979 -0.532,57.023 -1.904,49.94 -2.654,42.781 -3.412,35.626 -3.761,28.425 -3.702,21.223 -3.621,14.012 -3.229,6.838 -2.27,-0.375 Z" style="fill:#ff7900;fill-opacity:1;fill-rule:nonzero;stroke:none" id="path436"/></g><g id="g438" transform="translate(645.6514,53.2949)"><path d="m 0,0 c 0,0 -12.198,8.383 -8.874,17.266 3.324,8.882 6.253,6.948 6.033,19.241 -0.22,12.293 4.219,19.409 17.597,20.743 13.378,1.334 18.837,6.174 25.624,8.303 6.787,2.129 11.488,0.935 13.285,-3.469 C 55.461,57.679 53.685,50.831 44.997,49.6 36.309,48.369 31.706,45.773 30.853,36.756 29.999,27.739 25.804,25.473 17.852,23.955 9.9,22.437 19.415,2.462 0,0" style="fill:#ff7900;fill-opacity:1;fill-rule:nonzero;stroke:none" id="path440"/></g><g id="g442" transform="translate(645.3193,55.0762)"><path d="M 0,0 C 0.662,12.263 4.534,24.344 11.386,34.466 18.223,44.572 28.113,52.591 39.469,56.844 28.238,52.269 18.685,44.021 12.247,33.899 5.795,23.76 2.365,11.834 2.061,-0.08 Z" style="fill:#ff9100;fill-opacity:1;fill-rule:nonzero;stroke:none" id="path444"/></g><g id="g446" transform="translate(640.5137,66.2393)"><path d="m 0,0 c 0,0 -14.219,1.937 -16.59,10.235 -2.371,8.299 3.305,11.346 -4.723,14.383 -8.029,3.036 -13.909,1.969 -15.513,9.953 -1.604,7.985 -4.116,13.516 -10.421,16.872 -6.305,3.356 -1.012,12.405 5.743,9.597 6.755,-2.809 8.939,-8.145 18.496,-7.33 10.78,0.919 17.023,-1.789 15.976,-10.207 C -7.848,36.948 -6.243,36.064 0.8,33.153 12.806,28.192 10.496,15.82 6.654,7.594 2.813,-0.632 0,0 0,0" style="fill:#ff9500;fill-opacity:1;fill-rule:nonzero;stroke:none" id="path448"/></g><g id="g450" transform="translate(637.7617,68.5449)"><path d="m 0,0 c 0.429,5.633 -0.765,11.353 -2.938,16.641 -2.18,5.303 -5.31,10.22 -8.969,14.682 -3.669,4.466 -7.88,8.491 -12.444,12.067 -4.567,3.574 -9.494,6.7 -14.681,9.335 5.255,-2.496 10.276,-5.496 14.962,-8.967 4.681,-3.472 9.036,-7.415 12.87,-11.838 3.826,-4.423 7.149,-9.337 9.539,-14.735 C 0.718,11.804 2.144,5.877 1.846,-0.134 Z" style="fill:#ff7900;fill-opacity:1;fill-rule:nonzero;stroke:none" id="path452"/></g><g id="g454" transform="translate(660.3193,70.9951)"><path d="m 0,0 h -15.44 -15.44 c 0,0 -2.53,-13.414 4.557,-26.069 H -15.44 -4.557 C 2.53,-13.414 0,0 0,0" style="fill:#184960;fill-opacity:1;fill-rule:nonzero;stroke:none" id="path456"/></g><g id="g458" transform="translate(662.4072,65.5029)"><path d="m 0,0 c -0.126,3.414 -0.434,5.492 -0.434,5.492 h -17.094 -17.094 c 0,0 -0.308,-2.078 -0.434,-5.492 z" style="fill:#054b6b;fill-opacity:1;fill-rule:nonzero;stroke:none" id="path460"/></g><g id="g462" transform="translate(101.3965,64.5176)"><path d="m 0,0 c 0.052,4.913 9.527,18.725 8.078,24.232 -2.905,11.043 -13.397,7.759 -12.375,20.125 0.588,7.107 -3.906,13.699 -17.441,12.75 -13.68,-0.958 -16.663,4.313 -23.65,5.965 -6.985,1.653 -11.633,0.112 -13.122,-4.452 -1.49,-4.564 0.794,-11.33 9.628,-11.94 8.834,-0.612 12.074,-2.182 13.585,-11.198 1.512,-9.015 9.123,-3.721 15.75,-8.5 5.375,-3.875 -2.982,-7.535 2.375,-14.5 C -13.909,8.241 -2.619,7.294 0,0" style="fill:#ff7900;fill-opacity:1;fill-rule:nonzero;stroke:none" id="path464"/></g><g id="g466" transform="translate(99.5791,66.1113)"><path d="m 0,0 c -1.176,11.979 -5.501,23.739 -12.737,33.479 -7.222,9.723 -17.443,17.329 -29.081,21.115 11.737,-3.468 22.265,-10.831 29.87,-20.512 C -4.329,24.388 0.431,12.509 1.976,0.219 Z" style="fill:#ff9100;fill-opacity:1;fill-rule:nonzero;stroke:none" id="path468"/></g><g id="g470" transform="translate(113.4746,66.5508)"><path d="m 0,0 c 0,0 -19.933,2.902 -20.241,15.238 -0.309,12.336 10.854,16.356 0.957,26.027 -9.898,9.671 -9.813,15.275 -4.625,21.741 5.188,6.466 -6.162,8.95 -7.076,19.536 -0.914,10.586 9.319,14.102 16.52,10.283 7.2,-3.818 3.611,-12.612 7.083,-18.702 C -3.91,68.034 5.888,67.132 8.551,59.352 11.214,51.571 8.161,44.979 8.814,39.14 9.467,33.3 16.7,27.11 17.812,18.532 18.923,9.955 3.62,0.583 0,0" style="fill:#ff9100;fill-opacity:1;fill-rule:nonzero;stroke:none" id="path472"/></g><g id="g474" transform="translate(112.3867,62.7578)"><path d="m 0,0 c 0.198,7.403 -0.175,14.905 -0.879,22.328 -0.725,7.433 -1.87,14.825 -3.433,22.133 -1.557,7.313 -3.748,14.478 -6.365,21.483 -2.681,6.991 -6.142,13.655 -10.155,19.988 4.149,-6.241 7.769,-12.846 10.616,-19.803 2.782,-6.971 5.145,-14.126 6.872,-21.444 C -1.609,37.371 -0.291,29.957 0.604,22.488 1.478,15.009 2.022,7.519 1.986,-0.067 Z" style="fill:#ff7900;fill-opacity:1;fill-rule:nonzero;stroke:none" id="path476"/></g><g id="g478" transform="translate(138.7207,76.7109)"><path d="m 0,0 c 1.993,9.055 -5.158,6.626 3.247,10.414 8.406,3.787 10.817,4.014 12.008,12.679 1.19,8.666 3.518,14.762 10.055,18.778 6.537,4.016 0.263,13.366 -6.792,9.908 -7.056,-3.458 -9.044,-9.324 -19.345,-9.083 -11.617,0.272 -18.13,-3.045 -16.45,-12.001 1.307,-6.972 -1.009,-12.93 -8.367,-16.517 -12.542,-6.115 0.565,-17.48 4.406,-29.925 C -14.597,1.354 -1.992,-9.054 0,0" style="fill:#ff7900;fill-opacity:1;fill-rule:nonzero;stroke:none" id="path480"/></g><g id="g482" transform="translate(117.6123,62.6904)"><path d="m 0,0 c -0.718,6.425 0.419,12.873 2.613,18.799 2.203,5.946 5.442,11.434 9.25,16.43 3.819,4.996 8.225,9.511 13.015,13.543 4.793,4.031 9.978,7.58 15.446,10.603 C 34.938,56.207 29.862,52.53 25.203,48.396 20.547,44.261 16.299,39.666 12.661,34.636 9.033,29.609 6.004,24.131 4.019,18.301 2.038,12.488 1.138,6.277 1.97,0.266 Z" style="fill:#ff9100;fill-opacity:1;fill-rule:nonzero;stroke:none" id="path484"/></g><g id="g486" transform="translate(95.8887,70.9951)"><path d="M 0,0 H 15.439 30.88 c 0,0 2.53,-13.414 -4.557,-26.069 H 15.439 4.557 C -2.53,-13.414 0,0 0,0" style="fill:#184960;fill-opacity:1;fill-rule:nonzero;stroke:none" id="path488"/></g><g id="g490" transform="translate(93.8008,65.5029)"><path d="m 0,0 c 0.126,3.414 0.434,5.492 0.434,5.492 h 17.093 17.095 c 0,0 0.308,-2.078 0.434,-5.492 z" style="fill:#054b6b;fill-opacity:1;fill-rule:nonzero;stroke:none" id="path492"/></g><g id="g494" transform="translate(586.5156,271.6982)"><path d="m 0,0 h -58.044 c -1.88,0 -3.403,1.524 -3.403,3.403 v 39.784 c 0,1.879 1.523,3.403 3.403,3.403 L 0,46.59 c 1.879,0 3.403,-1.524 3.403,-3.403 V 3.403 C 3.403,1.524 1.879,0 0,0" style="fill: #191720;fill-opacity:1;fill-rule:nonzero;stroke:none;" id="path496"/></g><g id="g498" transform="translate(586.5156,271.6982)"><path d="m 0,0 h -58.044 c -1.88,0 -3.403,1.524 -3.403,3.403 v 39.784 c 0,1.879 1.523,3.403 3.403,3.403 L 0,46.59 c 1.879,0 3.403,-1.524 3.403,-3.403 V 3.403 C 3.403,1.524 1.879,0 0,0 Z" style="fill:none;stroke: #17C4EE;stroke-width:2.731;stroke-linecap:butt;stroke-linejoin:miter;stroke-miterlimit:10;stroke-dasharray:none;stroke-opacity:1;" id="path500"/></g><g id="g502" transform="translate(529.7881,277.5435)"><path d="m 0,0 c 4.617,0 4.617,6.314 9.234,6.314 4.618,0 4.618,11.136 9.235,11.136 4.617,0 3.339,-7.259 7.956,-7.259 4.617,0 5.896,19.012 10.513,19.012 4.619,0 4.619,-8.344 9.237,-8.344 4.618,0 4.618,8.344 9.236,8.344" style="fill:none;stroke: #17C4EE;stroke-width:2;stroke-linecap:round;stroke-linejoin:round;stroke-miterlimit:10;stroke-dasharray:none;stroke-opacity:1;" id="path504"/></g><g id="g506" transform="translate(597.7187,348.3467)"><path d="m 0,0 c -4.531,0 -8.198,3.667 -8.198,8.199 0,4.531 3.667,8.199 8.198,8.199 4.532,0 8.199,-3.668 8.199,-8.199 C 8.199,3.667 4.532,0 0,0 m 20.082,11.821 h -3.924 c -0.703,0 -1.336,0.444 -1.553,1.113 -0.251,0.776 -0.562,1.525 -0.928,2.242 -0.321,0.627 -0.189,1.389 0.309,1.887 l 2.776,2.775 c 0.643,0.643 0.643,1.686 0,2.329 L 13.97,24.96 c -0.644,0.644 -1.687,0.644 -2.329,0 L 8.865,22.185 c -0.498,-0.498 -1.261,-0.63 -1.887,-0.31 -0.717,0.366 -1.466,0.678 -2.243,0.929 -0.669,0.217 -1.114,0.85 -1.114,1.553 v 3.925 c 0,0.909 -0.737,1.647 -1.646,1.647 h -3.95 c -0.91,0 -1.647,-0.738 -1.647,-1.647 v -3.925 c 0,-0.703 -0.444,-1.337 -1.113,-1.553 -0.777,-0.252 -1.526,-0.563 -2.243,-0.929 -0.626,-0.32 -1.389,-0.188 -1.887,0.31 l -2.775,2.774 c -0.642,0.644 -1.686,0.644 -2.329,0 l -2.792,-2.791 c -0.643,-0.643 -0.643,-1.686 0,-2.33 l 2.776,-2.775 c 0.498,-0.498 0.63,-1.26 0.309,-1.887 -0.366,-0.717 -0.678,-1.466 -0.928,-2.242 -0.217,-0.669 -0.85,-1.113 -1.554,-1.113 h -3.925 c -0.909,0 -1.646,-0.738 -1.646,-1.648 V 6.225 c 0,-0.91 0.737,-1.648 1.646,-1.648 h 3.925 c 0.704,0 1.337,-0.444 1.554,-1.113 0.25,-0.777 0.562,-1.526 0.928,-2.243 0.321,-0.627 0.189,-1.389 -0.309,-1.887 l -2.776,-2.775 c -0.643,-0.643 -0.643,-1.686 0,-2.33 l 2.792,-2.791 c 0.643,-0.644 1.687,-0.644 2.329,0 l 2.775,2.775 c 0.498,0.498 1.261,0.63 1.887,0.309 0.717,-0.366 1.466,-0.677 2.243,-0.928 0.669,-0.217 1.113,-0.85 1.113,-1.553 v -3.925 c 0,-0.909 0.737,-1.647 1.647,-1.647 h 3.95 c 0.909,0 1.646,0.738 1.646,1.647 v 3.925 c 0,0.703 0.445,1.336 1.114,1.553 0.777,0.251 1.526,0.562 2.243,0.928 0.626,0.321 1.389,0.188 1.887,-0.309 l 2.776,-2.776 c 0.642,-0.643 1.686,-0.643 2.329,0 l 2.792,2.793 c 0.643,0.644 0.643,1.686 0,2.33 l -2.776,2.774 c -0.498,0.499 -0.63,1.261 -0.309,1.888 0.366,0.716 0.677,1.465 0.928,2.242 0.217,0.669 0.85,1.113 1.554,1.113 h 3.923 c 0.91,0 1.647,0.738 1.647,1.648 v 3.948 c 0,0.91 -0.737,1.648 -1.647,1.648" style="fill: #17C4EE;fill-opacity:1;fill-rule:nonzero;stroke:none;" id="path508"/></g><g id="g510" transform="translate(633.1299,334.8848)"><path d="m 0,0 c -2.853,0 -5.162,2.309 -5.162,5.162 0,2.854 2.309,5.163 5.162,5.163 2.854,0 5.163,-2.309 5.163,-5.163 C 5.163,2.309 2.854,0 0,0 M 12.645,7.443 H 10.174 C 9.731,7.443 9.332,7.723 9.196,8.144 9.038,8.632 8.842,9.104 8.611,9.555 8.41,9.95 8.493,10.43 8.807,10.743 l 1.747,1.748 c 0.405,0.405 0.405,1.061 0,1.466 l -1.758,1.758 c -0.405,0.406 -1.062,0.406 -1.467,0 L 5.582,13.968 C 5.269,13.655 4.788,13.571 4.394,13.773 3.942,14.004 3.471,14.2 2.981,14.358 2.561,14.494 2.28,14.893 2.28,15.336 v 2.471 c 0,0.572 -0.464,1.037 -1.037,1.037 h -2.486 c -0.572,0 -1.037,-0.465 -1.037,-1.037 v -2.471 c 0,-0.443 -0.28,-0.842 -0.701,-0.978 -0.489,-0.158 -0.96,-0.355 -1.412,-0.585 -0.395,-0.202 -0.875,-0.118 -1.188,0.195 l -1.747,1.747 c -0.405,0.405 -1.062,0.405 -1.467,0 l -1.758,-1.757 c -0.404,-0.405 -0.404,-1.062 0,-1.467 l 1.747,-1.747 C -8.492,10.43 -8.408,9.95 -8.61,9.555 -8.841,9.104 -9.037,8.633 -9.195,8.144 -9.331,7.723 -9.73,7.443 -10.173,7.443 h -2.472 c -0.572,0 -1.037,-0.464 -1.037,-1.037 V 3.919 c 0,-0.573 0.465,-1.037 1.037,-1.037 h 2.472 c 0.443,0 0.842,-0.28 0.978,-0.701 0.158,-0.489 0.354,-0.961 0.585,-1.412 0.202,-0.395 0.118,-0.874 -0.196,-1.188 l -1.747,-1.748 c -0.405,-0.404 -0.405,-1.061 0,-1.466 l 1.758,-1.758 c 0.405,-0.405 1.062,-0.405 1.467,0 l 1.747,1.747 c 0.313,0.314 0.793,0.397 1.188,0.195 0.452,-0.23 0.923,-0.426 1.412,-0.584 0.421,-0.136 0.701,-0.535 0.701,-0.978 v -2.471 c 0,-0.573 0.465,-1.037 1.037,-1.037 h 2.486 c 0.573,0 1.037,0.464 1.037,1.037 v 2.471 c 0,0.443 0.281,0.841 0.701,0.977 0.49,0.159 0.961,0.355 1.413,0.585 0.394,0.202 0.875,0.119 1.188,-0.195 l 1.747,-1.747 c 0.405,-0.405 1.063,-0.405 1.467,0 l 1.758,1.758 c 0.405,0.405 0.405,1.062 0,1.467 L 8.807,-0.419 C 8.493,-0.105 8.41,0.375 8.611,0.77 8.842,1.221 9.038,1.692 9.196,2.181 9.332,2.602 9.731,2.882 10.174,2.882 h 2.471 c 0.573,0 1.037,0.464 1.037,1.037 v 2.487 c 0,0.573 -0.464,1.037 -1.037,1.037" style="fill: #17C4EE;fill-opacity:1;fill-rule:nonzero;stroke:none;" id="path512"/></g><g id="g514" transform="translate(614.0166,381.6802)"><path d="m 0,0 c -1.763,0 -3.188,1.426 -3.188,3.188 0,1.763 1.425,3.189 3.188,3.189 1.763,0 3.188,-1.426 3.188,-3.189 C 3.188,1.426 1.763,0 0,0 M 7.81,4.597 H 6.283 C 6.01,4.597 5.764,4.77 5.68,5.03 5.582,5.332 5.461,5.623 5.318,5.902 5.193,6.146 5.245,6.442 5.438,6.636 l 1.081,1.079 c 0.25,0.25 0.25,0.655 0,0.906 L 5.433,9.707 c -0.25,0.25 -0.657,0.25 -0.907,0 L 3.447,8.627 C 3.254,8.434 2.957,8.382 2.714,8.507 2.435,8.649 2.144,8.771 1.841,8.868 1.581,8.952 1.408,9.199 1.408,9.472 v 1.526 c 0,0.354 -0.287,0.641 -0.64,0.641 h -1.536 c -0.354,0 -0.64,-0.287 -0.64,-0.641 V 9.472 c 0,-0.273 -0.173,-0.52 -0.434,-0.604 C -2.144,8.77 -2.435,8.649 -2.714,8.507 -2.957,8.382 -3.254,8.434 -3.447,8.627 l -1.079,1.08 c -0.25,0.25 -0.657,0.25 -0.907,0 L -6.519,8.621 c -0.25,-0.25 -0.25,-0.656 0,-0.906 L -5.438,6.636 C -5.245,6.442 -5.194,6.146 -5.318,5.902 -5.461,5.623 -5.582,5.332 -5.68,5.03 -5.764,4.77 -6.01,4.597 -6.283,4.597 H -7.81 c -0.354,0 -0.64,-0.287 -0.64,-0.64 V 2.421 c 0,-0.354 0.286,-0.641 0.64,-0.641 h 1.527 c 0.273,0 0.519,-0.173 0.603,-0.433 0.098,-0.302 0.219,-0.593 0.362,-0.872 0.124,-0.244 0.073,-0.54 -0.12,-0.734 l -1.081,-1.079 c -0.25,-0.25 -0.25,-0.656 0,-0.906 l 1.086,-1.086 c 0.25,-0.25 0.657,-0.25 0.907,0 l 1.079,1.08 c 0.193,0.193 0.49,0.245 0.733,0.12 0.279,-0.142 0.57,-0.264 0.872,-0.361 0.261,-0.084 0.434,-0.331 0.434,-0.604 v -1.526 c 0,-0.354 0.286,-0.641 0.64,-0.641 h 1.536 c 0.353,0 0.64,0.287 0.64,0.641 v 1.526 c 0,0.273 0.173,0.52 0.433,0.604 0.303,0.097 0.594,0.219 0.872,0.361 0.244,0.125 0.541,0.073 0.734,-0.12 l 1.079,-1.08 c 0.25,-0.25 0.657,-0.25 0.907,0 l 1.086,1.086 c 0.25,0.25 0.25,0.656 0,0.906 L 5.438,-0.259 C 5.245,-0.065 5.193,0.231 5.318,0.475 5.461,0.754 5.582,1.045 5.68,1.347 5.764,1.607 6.01,1.78 6.283,1.78 H 7.81 c 0.353,0 0.64,0.287 0.64,0.641 v 1.536 c 0,0.353 -0.287,0.64 -0.64,0.64" style="fill: #17C4EE;fill-opacity:1;fill-rule:nonzero;stroke:none;" id="path516"/></g><g id="g518" transform="translate(395.1699,119.1768)"><path d="m 0,0 c -0.441,3.438 -2.193,6.607 -4.464,9.227 -2.271,2.619 -5.052,4.742 -7.869,6.762 -3.594,2.579 -7.471,5.099 -11.865,5.602 -2.089,0.238 -4.289,-0.018 -6.106,-1.075 -1.817,-1.059 -3.184,-3.001 -3.22,-5.103 -0.044,-2.572 1.801,-4.79 3.813,-6.393 2.012,-1.604 4.327,-2.898 5.903,-4.931 2.037,-2.627 2.561,-6.12 4.22,-9 1.585,-2.752 4.232,-4.875 7.262,-5.825 2.706,-0.85 7.408,-1.201 9.484,1.154 C -0.581,-7.017 0.432,-3.355 0,0" style="fill:#ff9500;fill-opacity:1;fill-rule:nonzero;stroke:none" id="path520"/></g><g id="g522" transform="translate(395.8975,118.9326)"><path d="m 0,0 c -0.962,2.438 -1.403,5.149 -0.807,7.702 0.689,2.947 2.675,5.421 3.704,8.267 1.046,2.89 1.108,6.164 2.753,8.76 1.902,2.999 5.929,4.482 9.3,3.366 3.37,-1.116 5.727,-4.767 5.288,-8.29 -0.305,-2.451 -1.77,-4.598 -2.429,-6.979 C 16.864,9.418 17.613,5.699 16.571,2.32 15.701,-0.506 13.547,-2.909 10.832,-4.082 9.551,-4.636 8.182,-4.965 6.877,-5.457 6.013,-5.782 5.017,-6.375 4.057,-6.112 2.074,-5.568 0.672,-1.705 0,0" style="fill:#ff9100;fill-opacity:1;fill-rule:nonzero;stroke:none" id="path524"/></g><g id="g526" transform="translate(402.4619,97.2109)"><path d="m 0,0 c 1.331,2.437 3.979,4.1 6.752,4.24 1.976,0.1 3.913,-0.516 5.884,-0.683 2.189,-0.186 4.427,0.182 6.57,-0.301 2.143,-0.484 4.273,-2.241 4.102,-4.431 -0.124,-1.595 -1.461,-2.889 -2.962,-3.439 -1.502,-0.55 -3.149,-0.498 -4.745,-0.404 -1.597,0.095 -3.227,0.222 -4.772,-0.192 C 8.982,-5.706 7.431,-6.927 5.73,-7.801 3.931,-8.726 1.032,-9.516 -0.19,-7.463 -1.468,-5.316 -1.149,-2.106 0,0" style="fill:#ff7900;fill-opacity:1;fill-rule:nonzero;stroke:none" id="path528"/></g><g id="g530" transform="translate(396.7441,69.6934)"><path d="M 0,0 C 0,0 2.107,26.305 15.863,27.753" style="fill:none;stroke:#ff7900;stroke-width:0.724;stroke-linecap:butt;stroke-linejoin:miter;stroke-miterlimit:10;stroke-dasharray:none;stroke-opacity:1" id="path532"/></g><g id="g534" transform="translate(396.9209,63.6602)"><path d="M 0,0 C 0,0 -2.172,41.025 8.688,70.468" style="fill:none;stroke:#ff7900;stroke-width:0.724;stroke-linecap:butt;stroke-linejoin:miter;stroke-miterlimit:10;stroke-dasharray:none;stroke-opacity:1" id="path536"/></g><g id="g538" transform="translate(397.2041,88.0469)"><path d="M 0,0 C 0,0 0.44,28.223 -23.45,43.909" style="fill:none;stroke:#ff7900;stroke-width:0.724;stroke-linecap:butt;stroke-linejoin:miter;stroke-miterlimit:10;stroke-dasharray:none;stroke-opacity:1" id="path540"/></g><g id="g542" transform="translate(411.9893,70.6914)"><path d="m 0,0 h -15.259 -15.26 c 0,0 -2.501,-13.258 4.503,-25.766 h 10.757 10.757 C 2.502,-13.258 0,0 0,0" style="fill:#184960;fill-opacity:1;fill-rule:nonzero;stroke:none" id="path544"/></g><g id="g546" transform="translate(414.0537,65.2627)"><path d="m 0,0 c -0.125,3.374 -0.429,5.429 -0.429,5.429 h -16.894 -16.896 c 0,0 -0.303,-2.055 -0.427,-5.429 z" style="fill:#054b6b;fill-opacity:1;fill-rule:nonzero;stroke:none" id="path548"/></g><path d="m 474.4,435.246 h -18.758 v 28.888 H 474.4 Z" style="fill: #17C4EE;fill-opacity:1;fill-rule:nonzero;stroke:none;" id="path550"/><g id="g552" transform="translate(465.0215,482.3335)"><path d="M 0,0 -17.103,-21.278 H 17.104 Z" style="fill: #17C4EE;fill-opacity:1;fill-rule:nonzero;stroke:none;" id="path554"/></g><g id="g558" transform="translate(316.0918,337.5669)"/><g id="g562" transform="translate(605.5547,439.7563)"><path d="m 0,0 c 0,-9.925 -8.046,-17.971 -17.971,-17.971 -9.925,0 -17.97,8.046 -17.97,17.971 0,9.925 8.045,17.971 17.97,17.971 C -8.046,17.971 0,9.925 0,0 Z" style="fill:none;stroke: #17C4EE;stroke-width:8.583;stroke-linecap:butt;stroke-linejoin:miter;stroke-miterlimit:10;stroke-dasharray:none;stroke-opacity:1;" id="path564"/></g><g id="g566" transform="translate(578.5918,424.1938)"><path d="M 0,0 C -5.368,3.108 -8.979,8.914 -8.979,15.563" style="fill:none;stroke: #acdeea;stroke-width:8.583;stroke-linecap:butt;stroke-linejoin:miter;stroke-miterlimit:10;stroke-dasharray:none;stroke-opacity:1;" id="path568"/></g><g id="g570" transform="translate(569.6133,439.7563)"><path d="M 0,0 C 0,9.925 8.046,17.971 17.971,17.971" style="fill:none;stroke: #bdf5ff;stroke-width:8.583;stroke-linecap:butt;stroke-linejoin:miter;stroke-miterlimit:10;stroke-dasharray:none;stroke-opacity:1;" id="path572"/></g><g id="g574" transform="translate(198.4824,437.4424)"><path d="m 0,0 h -11.655 c -1.269,0 -2.297,1.028 -2.297,2.296 v 11.656 c 0,1.268 1.028,2.296 2.297,2.296 H 0 c 1.269,0 2.296,-1.028 2.296,-2.296 V 2.296 C 2.296,1.028 1.269,0 0,0" style="fill:#badce7;fill-opacity:1;fill-rule:nonzero;stroke:none" id="path576"/></g><g id="g578" transform="translate(188.7725,444.7231)"><path d="M 0,0 1.849,-2.056 7.764,3.743" style="fill:none;stroke: rgb(17, 17, 19);stroke-width:2.218;stroke-linecap:round;stroke-linejoin:round;stroke-miterlimit:10;stroke-dasharray:none;stroke-opacity:1;" id="path580"/></g><g id="g582" transform="translate(628.2412,193.0479)"><path d="m 0,0 h -11.656 c -1.268,0 -2.296,1.028 -2.296,2.296 v 11.656 c 0,1.269 1.028,2.296 2.296,2.296 H 0 c 1.268,0 2.296,-1.027 2.296,-2.296 V 2.296 C 2.296,1.028 1.268,0 0,0" style="fill:#badce7;fill-opacity:1;fill-rule:nonzero;stroke:none" id="path584"/></g><g id="g586" transform="translate(618.5312,200.3291)"><path d="M 0,0 1.849,-2.057 7.764,3.742" style="fill:none;stroke: rgb(17, 17, 19);stroke-width:2.218;stroke-linecap:round;stroke-linejoin:round;stroke-miterlimit:10;stroke-dasharray:none;stroke-opacity:1;" id="path588"/></g><g id="g590" transform="translate(126.0342,280.6963)"><path d="m 0,0 h -17.373 c -1.89,0 -3.422,1.532 -3.422,3.422 v 17.372 c 0,1.89 1.532,3.422 3.422,3.422 H 0 c 1.89,0 3.422,-1.532 3.422,-3.422 V 3.422 C 3.422,1.532 1.89,0 0,0" style="fill:#badce7;fill-opacity:1;fill-rule:nonzero;stroke:none" id="path592"/></g><g id="g594" transform="translate(111.5625,291.5474)"><path d="M 0,0 2.755,-3.064 11.57,5.578" style="fill:none;stroke: rgb(17, 17, 19);stroke-width:3.306;stroke-linecap:round;stroke-linejoin:round;stroke-miterlimit:10;stroke-dasharray:none;stroke-opacity:1;" id="path596"/></g><path d="m 288.362,432.156 h -6.454 v 6.858 h 6.454 z" style="fill: #17C4EE;fill-opacity:1;fill-rule:nonzero;stroke:none;" id="path598"/><path d="m 297.605,432.156 h -6.454 v 11 h 6.454 z" style="fill: #17C4EE;fill-opacity:1;fill-rule:nonzero;stroke:none;" id="path600"/><path d="m 306.849,432.156 h -6.454 v 16.259 h 6.454 z" style="fill: #17C4EE;fill-opacity:1;fill-rule:nonzero;stroke:none;" id="path602"/><path d="m 316.092,432.156 h -6.455 v 22.936 h 6.455 z" style="fill: #17C4EE;fill-opacity:1;fill-rule:nonzero;stroke:none;" id="path604"/><g id="g606" transform="translate(216.6689,54.1602)"><path d="m 0,0 h -10.015 l -0.983,16.219 9.771,0.617 z" style="fill:#ffc39f;fill-opacity:1;fill-rule:nonzero;stroke:none" id="path608"/></g><g id="g610" transform="translate(163.3604,54.5244)"><path d="m 0,0 -9.772,0.292 1.751,14.22 9.042,-1.385 z" style="fill:#ffc39f;fill-opacity:1;fill-rule:nonzero;stroke:none" id="path612"/></g><g id="g614" transform="translate(172.1455,223.0557)"><path d="m 0,0 -19.602,-162.479 h 12.003 l 28.47,118.238 12.13,-118.238 H 44.864 L 41.947,0 Z" style="fill:#054b6b;fill-opacity:1;fill-rule:nonzero;stroke:none" id="path616"/></g><g id="g618" transform="translate(243.5625,282.853)"><path d="M 0,0 C 0,0 1.984,3.817 1.832,5.574 1.68,7.33 1.329,9.847 3.115,12.545 c 0.417,0.63 1.58,2.302 1.58,2.302 0,0 0.953,-1.011 0.458,-2.097 -0.496,-1.087 -0.834,-2.247 -0.834,-2.247 0,0 0.867,1.577 4.157,2.535 1.541,0.448 7.608,1.987 7.608,1.987 0.858,-0.01 0.741,-1.24 -0.948,-2.042 0,0 0.754,-0.778 -0.632,-1.556 0,0 0.971,-0.725 -0.947,-1.799 0,0 0.763,-0.614 -1.216,-1.798 C 10.567,6.768 7.706,5.232 7.074,4.225 6.229,2.876 4.863,-1.748 4.863,-1.748 Z" style="fill:#ffc39f;fill-opacity:1;fill-rule:nonzero;stroke:none" id="path620"/></g><g id="g622" transform="translate(180.6445,300.2842)"><path d="m 0,0 c 0,0 -12.203,-3.573 -14.975,-4.302 -2.77,-0.73 0,-18.378 3.792,-38.651 3.793,-20.274 2.684,-34.276 2.684,-34.276 h 41.947 c 0,0 1.743,65.457 0.778,67.676 -1.75,4.02 -19.342,9.597 -19.342,9.597 z" style="fill:#ff9100;fill-opacity:1;fill-rule:nonzero;stroke:none" id="path624"/></g><g id="g626" transform="translate(183.0957,314.7798)"><path d="m 0,0 c 0,0 0.417,-10.047 -1.333,-14.082 l 2.139,-4.06 5.639,-3.427 3.574,2.678 1.045,3.058 V 0 Z" style="fill:#ffab7f;fill-opacity:1;fill-rule:nonzero;stroke:none" id="path628"/></g><g id="g630" transform="translate(178.6318,322.2041)"><path d="M 0,0 C -0.493,1.288 -0.449,2.772 0.12,4.029 0.585,5.055 1.37,5.908 1.871,6.917 2.309,7.799 2.543,8.818 3.24,9.513 3.946,10.216 5.037,10.449 6.015,10.254 6.992,10.059 7.861,9.483 8.561,8.773 9.521,7.799 10.203,6.552 10.507,5.218 10.875,3.596 10.687,1.9 10.366,0.269 10.075,-1.211 9.645,-2.731 8.626,-3.843 7.824,-4.72 6.684,-5.279 5.5,-5.376 4.332,-5.472 2.635,-5.143 1.98,-4.047 1.661,-3.511 1.506,-2.875 1.221,-2.319 0.823,-1.541 0.314,-0.82 0,0" style="fill:#252b38;fill-opacity:1;fill-rule:nonzero;stroke:none" id="path632"/></g><g id="g634" transform="translate(200.0908,330.7915)"><path d="m 0,0 c 0,0 2.432,-22.267 -4.083,-25.475 -4.214,-2.075 -10.939,0.145 -11.96,10.063 C -17.064,-5.494 -12.598,-0.665 -7.39,0 -2.819,0.583 0,0 0,0" style="fill:#ffc39f;fill-opacity:1;fill-rule:nonzero;stroke:none" id="path636"/></g><g id="g638" transform="translate(183.9014,319.707)"><path d="m 0,0 c 0,0 -1.507,1.653 -2.966,0 -1.458,-1.653 1.21,-5.109 3.231,-5.277 z" style="fill:#ffc39f;fill-opacity:1;fill-rule:nonzero;stroke:none" id="path640"/></g><g id="g642" transform="translate(187.3135,327.6104)"><path d="m 0,0 c 1.203,-0.165 2.434,-0.012 3.639,-0.172 1.413,-0.187 2.728,-0.793 4.068,-1.278 1.993,-0.721 4.121,-1.188 6.23,-0.966 2.107,0.222 4.198,1.2 5.436,2.92 1.261,1.752 1.496,4.189 0.593,6.149 -0.903,1.961 -2.908,3.366 -5.059,3.546 C 12.5,10.4 10.236,9.193 7.969,8.362 5.549,7.476 2.98,6.996 0.403,6.949 -0.657,6.93 -1.733,6.981 -2.764,6.727 -3.793,6.472 -4.798,5.844 -5.191,4.859 -5.697,3.594 -4.869,2.612 -3.938,1.898 -2.725,0.968 -1.555,0.212 0,0" style="fill:#252b38;fill-opacity:1;fill-rule:nonzero;stroke:none" id="path644"/></g><g id="g646" transform="translate(182.1826,301.9141)"><path d="m 0,0 c 0,0 1.402,-4.863 7.358,-8.704 -0.194,-1.823 -5.3,-5.517 -7.48,0.571 -1.078,3.013 -1.416,6.503 -1.416,6.503 z" style="fill:#ff7900;fill-opacity:1;fill-rule:nonzero;stroke:none" id="path648"/></g><g id="g650" transform="translate(189.541,293.2104)"><path d="M 0,0 C 4.497,3.087 4.619,8.538 4.619,8.538 L 5.987,7.118 C 5.987,7.118 7,1.045 4.861,-1.75 3.394,-3.668 0.196,-1.175 0,0" style="fill:#ff7900;fill-opacity:1;fill-rule:nonzero;stroke:none" id="path652"/></g><g id="g654" transform="translate(169.2676,222.4238)"><path d="m 0,0 c 0,0 4.23,-6.417 6.053,-7.876 1.823,-1.458 3.225,-4.544 3.225,-4.544 l -5.375,-7.312 c 0,0 -3.229,1.072 -4.25,4.937 -1.021,3.865 -1.986,4.294 -3.664,8.013 l -1.676,3.719 z" style="fill:#ffc39f;fill-opacity:1;fill-rule:nonzero;stroke:none" id="path656"/></g><g id="g658" transform="translate(165.0342,295.3437)"><path d="m 0,0 c 0,0 -6.219,-0.383 -9.136,-11.759 -2.917,-11.377 -6.546,-30.087 -7.518,-38.06 -0.412,-3.376 17.546,-32.967 17.546,-32.967 0,0 3.569,3.238 6.745,5.946 0,0 -9.926,20.741 -9.926,28.326 0,0 8.909,24.749 9.196,32.233 C 7.199,-8.697 7.239,-0.784 0,0" style="fill:#ff9100;fill-opacity:1;fill-rule:nonzero;stroke:none" id="path660"/></g><g id="g662" transform="translate(214.8701,290.731)"><path d="m 0,0 c 2.328,-0.353 9.433,-16.189 13.954,-24.357 l 4.522,-8.168 10.938,28.004 c 0,0 3.647,0.583 5.834,-2.625 0,0 -5.834,-37.776 -7.292,-42.006 -1.459,-4.229 -5.98,-7.293 -14.002,2.772 C 5.932,-36.317 -7.924,-16.773 -9.091,-14.585 -10.258,-12.397 -13.466,2.042 0,0" style="fill:#ff9100;fill-opacity:1;fill-rule:nonzero;stroke:none" id="path664"/></g><g id="g666" transform="translate(206.6543,55.3262)"><path d="m 0,0 h 9.335 c 0,0 1.02,0 4.084,-3.208 3.062,-3.209 11.959,-0.146 15.314,-6.563 H -0.729 c 0,0 -2.771,5.104 0.729,9.771" style="fill:#0e2e3d;fill-opacity:1;fill-rule:nonzero;stroke:none" id="path668"/></g><g id="g670" transform="translate(150.21,45.5547)"><path d="m 0,0 c -1.118,3.743 1.507,6.466 2.334,9.771 0.51,2.042 10.75,3.3 11.765,-1.166 C 15.071,4.327 14.293,0 14.293,0 Z" style="fill:#0e2e3d;fill-opacity:1;fill-rule:nonzero;stroke:none" id="path672"/></g><g id="g674" transform="translate(172.9893,200.3232)"><path d="M 0,0 -1.927,1.316 6.382,13.48 8.31,12.165 Z" style="fill:#003853;fill-opacity:1;fill-rule:nonzero;stroke:none" id="path676"/></g><path d="m 214.147,220.042 h -42.002 v 3.014 h 42.002 z" style="fill:#003853;fill-opacity:1;fill-rule:nonzero;stroke:none" id="path678"/><g id="g680" transform="translate(193.0166,178.8145)"><path d="M 0,0 5.834,21.805 1.993,-19.422 Z" style="fill:#003853;fill-opacity:1;fill-rule:nonzero;stroke:none" id="path682"/></g><g id="g684" transform="translate(214.9648,262.8765)"><path d="M 0,0 0.196,15.992 3.91,-5.385 Z" style="fill:#ff7900;fill-opacity:1;fill-rule:nonzero;stroke:none" id="path686"/></g><g id="g688" transform="translate(168.3115,263.5952)"><path d="M 0,0 2.719,9.906 1.716,-9.448 C 1.716,-9.448 0.064,-0.99 0,0" style="fill:#ff7900;fill-opacity:1;fill-rule:nonzero;stroke:none" id="path690"/></g><g id="g692" transform="translate(571.2559,46.9229)"><path d="m 0,0 -19.421,85.003 h 7.26 L 2.876,0 C 2.785,-1.824 0.091,-1.824 0,0" style="fill:#054b6b;fill-opacity:1;fill-rule:nonzero;stroke:none" id="path694"/></g><g id="g696" transform="translate(522.1914,46.9229)"><path d="m 0,0 -19.421,85.003 h 7.26 L 2.877,0 C 2.786,-1.824 0.091,-1.824 0,0" style="fill:#054b6b;fill-opacity:1;fill-rule:nonzero;stroke:none" id="path698"/></g><g id="g700" transform="translate(454.9834,46.9229)"><path d="m 0,0 19.421,85.003 h -7.26 L -2.876,0 C -2.785,-1.824 -0.091,-1.824 0,0" style="fill:#93c6d4;fill-opacity:1;fill-rule:nonzero;stroke:none" id="path702"/></g><g id="g704" transform="translate(578.6387,199.2158)"><path d="m 0,0 h -39.495 c -2.546,0 -4.82,-1.592 -5.691,-3.984 L -64.5,-57.048 c -1.438,-3.95 1.487,-8.127 5.69,-8.127 h 39.497 c 2.544,0 4.819,1.592 5.69,3.985 L 5.69,-8.127 C 7.128,-4.177 4.203,0 0,0" style="fill:#93c6d4;fill-opacity:1;fill-rule:nonzero;stroke:none" id="path706"/></g><g id="g708" transform="translate(563.1445,129.8115)"><path d="m 0,0 h -101.494 c -1.168,0 -2.115,0.946 -2.115,2.114 0,1.168 0.947,2.115 2.115,2.115 H 0 C 1.168,4.229 2.115,3.282 2.115,2.114 2.115,0.946 1.168,0 0,0" style="fill:#93c6d4;fill-opacity:1;fill-rule:nonzero;stroke:none" id="path710"/></g><g id="g712" transform="translate(563.1445,129.8115)"><path d="m 0,0 h -40.936 c -1.168,0 -2.115,0.946 -2.115,2.114 0,1.168 0.947,2.115 2.115,2.115 H 0 C 1.168,4.229 2.115,3.282 2.115,2.114 2.115,0.946 1.168,0 0,0" style="fill:#7ebac6;fill-opacity:1;fill-rule:nonzero;stroke:none" id="path714"/></g><g id="g716" transform="translate(500.8389,46.9229)"><path d="m 0,0 19.421,85.003 h -7.26 L -2.877,0 C -2.786,-1.824 -0.091,-1.824 0,0" style="fill:#93c6d4;fill-opacity:1;fill-rule:nonzero;stroke:none" id="path718"/></g><g id="g720" transform="translate(533.1963,253.9531)"><path d="m 0,0 c 0,0 -5.834,-0.314 -6.32,-6.634 -0.487,-6.32 0.65,-9.602 -2.073,-15.923 -2.722,-6.32 -4.928,-14.803 6.449,-15.581 11.376,-0.778 14.874,-0.292 18.375,-3.014 3.502,-2.723 15.437,5.542 11.159,12.835 -4.278,7.293 -5.907,11.473 -4.157,17.113 1.751,5.64 -1.935,11.824 -8.75,14.488 C 8.961,5.52 4.278,5.176 0,0" style="fill:#0e2e3d;fill-opacity:1;fill-rule:nonzero;stroke:none" id="path722"/></g><g id="g724" transform="translate(530.2432,217.7598)"><path d="m 0,0 c 0,0 1.592,-4.959 -2.326,-19.253 -3.911,-14.266 -5.188,-19.008 -8.877,-21.683 -2.276,-1.651 -28.144,-1.651 -28.144,-1.651 v 7.291 l 22.756,2.771 c 0,0 2.878,14.119 5.787,22.983 1.006,3.065 2.696,11.023 6.291,12.593 C -0.918,4.62 0,0 0,0" style="fill:#ff9100;fill-opacity:1;fill-rule:nonzero;stroke:none" id="path726"/></g><g id="g728" transform="translate(559.4551,193.3496)"><path d="m 0,0 c -1.073,-8.063 -3.99,-27.805 -3.99,-27.805 h -30.244 c 0,0 0.91,12.076 -0.572,18.634 -0.268,1.202 -0.619,2.229 -1.073,2.952 -2.346,3.745 -4.446,7.246 -4.47,11.109 0,0.933 0.118,1.901 0.386,2.893 1.354,5.052 3.396,16.242 5.927,19.346 2.532,3.115 15.137,2.718 15.137,2.718 0,0 16.481,-0.049 21.42,-2.812 C 3.837,26.299 4.341,24.644 4.446,22.66 4.784,16.487 0.806,6.103 0,0" style="fill:#ff9100;fill-opacity:1;fill-rule:nonzero;stroke:none" id="path730"/></g><g id="g732" transform="translate(554.5781,190.7246)"><path d="m 0,0 c 0,0 -23.057,-1.855 -29.929,-6.546 -0.268,1.202 -0.619,2.229 -1.073,2.952 -2.346,3.745 -4.446,7.246 -4.47,11.109 C -33.942,4.341 -30.046,0.128 -20.128,0 -4.178,-0.187 0,0 0,0" style="fill:#ff7900;fill-opacity:1;fill-rule:nonzero;stroke:none" id="path734"/></g><g id="g736" transform="translate(559.4551,193.3496)"><path d="m 0,0 c -1.073,-8.063 -3.99,-27.805 -3.99,-27.805 l 1.447,46.661 6.989,3.804 C 4.784,16.487 0.806,6.103 0,0" style="fill:#ff7900;fill-opacity:1;fill-rule:nonzero;stroke:none" id="path738"/></g><g id="g740" transform="translate(547.8291,181.5352)"><path d="m 0,0 c 0,0 -14.425,-0.53 -18.953,-0.821 0,0 -4.116,1.557 -6.667,1.75 -3.865,0.292 -7.269,-3.572 -8.289,-7.291 H -0.48 Z" style="fill:#ffc39f;fill-opacity:1;fill-rule:nonzero;stroke:none" id="path742"/></g><g id="g744" transform="translate(563.2676,218.8398)"><path d="m 0,0 c 0,0 4.252,-7.936 7.023,-18.437 2.772,-10.5 6.564,-21.148 3.064,-24.065 -3.501,-2.917 -25.962,-1.75 -25.962,-1.75 l -0.583,7.876 17.11,2.771 c 0,0 -6.464,16.19 -7.484,19.107 -1.022,2.917 -1.794,11.884 1.801,13.453 C -1.436,0.524 0,0 0,0" style="fill:#ff9100;fill-opacity:1;fill-rule:nonzero;stroke:none" id="path746"/></g><g id="g748" transform="translate(480.8467,53.8535)"><path d="m 0,0 h -5.151 l -0.674,7.605 6.29,0.624 z" style="fill:#ffc39f;fill-opacity:1;fill-rule:nonzero;stroke:none" id="path750"/></g><g id="g752" transform="translate(480.8467,53.8535)"><path d="M 0,0 C 0,0 1.9,-1.979 1.271,-6.356 0.974,-8.431 -3.546,-8.297 -11.174,-8.297 h -7.594 c -1.29,0 -1.86,1.602 -0.877,2.436 0.463,0.392 1.114,0.761 2.025,1.044 C -9.04,-2.16 -5.151,0 -5.151,0 Z" style="fill:#07222d;fill-opacity:1;fill-rule:nonzero;stroke:none" id="path754"/></g><g id="g756" transform="translate(541.8691,165.5449)"><path d="m 0,0 c -0.049,-2.625 5.979,-11.526 4.783,-20.2 -0.784,-5.689 -5.668,-11.304 -17.064,-11.304 -15.562,0 -40.359,0.167 -44.412,0 -3.216,-0.133 -4.749,-0.204 -2.863,-6.271 4.467,-14.367 0.69,-38.829 -0.483,-71.937 h -6.795 c 0,0 -6.029,34.36 -8.528,50.983 -3.89,25.864 -9.796,36.009 1.458,41.373 C -62.001,-11.685 -16.608,0 -16.608,0 Z" style="fill:#003853;fill-opacity:1;fill-rule:nonzero;stroke:none" id="path758"/></g><g id="g760" transform="translate(495.5137,53.8535)"><path d="m 0,0 h -5.152 l -0.673,7.605 6.29,0.624 z" style="fill:#ffc39f;fill-opacity:1;fill-rule:nonzero;stroke:none" id="path762"/></g><g id="g764" transform="translate(495.5137,53.8535)"><path d="M 0,0 C 0,0 1.899,-1.979 1.271,-6.356 0.974,-8.431 -3.546,-8.297 -11.174,-8.297 h -7.595 c -1.289,0 -1.859,1.602 -0.876,2.436 0.463,0.392 1.114,0.761 2.025,1.044 C -9.04,-2.16 -5.152,0 -5.152,0 Z" style="fill:#0e2e3d;fill-opacity:1;fill-rule:nonzero;stroke:none" id="path766"/></g><g id="g768" transform="translate(555.4629,165.5449)"><path d="m 0,0 c -0.049,-2.625 5.979,-11.526 4.783,-20.2 -0.784,-5.689 -5.668,-11.304 -17.065,-11.304 h -44.411 c -3.219,0 -4.749,-0.204 -2.863,-6.271 4.467,-14.367 2.474,-39.12 0.238,-71.937 h -6.815 c 0,0 -6.73,34.36 -9.229,50.983 -3.89,25.864 -9.796,36.009 1.458,41.373 C -62.002,-11.685 -20.076,0 -20.076,0 Z" style="fill:#054b6b;fill-opacity:1;fill-rule:nonzero;stroke:none" id="path770"/></g><g id="g772" transform="translate(532.3213,222.8418)"><path d="m 0,0 c 0,0 -0.092,-6.443 4.278,-10.139 0,0 9.281,4.327 12.635,10.125 0,0 -8.715,0.955 -16.913,0.014" style="fill:#ffc39f;fill-opacity:1;fill-rule:nonzero;stroke:none" id="path774"/></g><g id="g776" transform="translate(534.21,223.0254)"><path d="m 0,0 c 0,0 2.286,0.233 2.286,2.917 0,2.684 0.268,7.788 0.268,7.788 l 8.605,-0.729 c 0,0 -0.729,-8.429 0.656,-9.976 l 1.386,-1.547 C 13.201,-1.547 1.385,-3.558 0,0" style="fill:#ffc39f;fill-opacity:1;fill-rule:nonzero;stroke:none" id="path778"/></g><g id="g780" transform="translate(536.499,227.0215)"><path d="M 0,0 C 0,0 5.658,-0.875 8.679,1.531 L 8.87,5.979 0,4.06 Z" style="fill:#ffab7f;fill-opacity:1;fill-rule:nonzero;stroke:none" id="path782"/></g><g id="g784" transform="translate(531.4941,250.8052)"><path d="m 0,0 c 0,0 -7.584,-20.793 3.063,-23.127 10.648,-2.334 12.835,8.751 12.835,8.751 0,0 2.752,0.654 3.179,3.039 0.413,2.308 -2.79,1.433 -2.79,1.433 0,0 2.83,8.552 -3.598,11.425 C 5.934,4.542 1.313,2.96 0,0" style="fill:#ffc39f;fill-opacity:1;fill-rule:nonzero;stroke:none" id="path786"/></g><g id="g788" transform="translate(532.5098,253.3477)"><path d="m 0,0 c 0,0 2.437,-11.668 15.271,-12.446 0,0 3.306,8.265 1.07,11.765 C 14.104,2.82 3.792,5.007 0,0" style="fill:#0e2e3d;fill-opacity:1;fill-rule:nonzero;stroke:none" id="path790"/></g><g id="g792" transform="translate(520.791,177.5078)"><path d="m 0,0 h -50.685 l -12.143,33.363 c -0.516,1.417 0.533,2.915 2.041,2.915 h 46.061 c 0.913,0 1.729,-0.571 2.041,-1.428 z" style="fill:#0e2e3d;fill-opacity:1;fill-rule:nonzero;stroke:none" id="path794"/></g><g id="g796" transform="translate(550.915,174.3574)"><path d="m 0,0 h -50.37 c -0.87,0 -1.575,0.705 -1.575,1.575 0,0.87 0.705,1.575 1.575,1.575 H 0 C 0.87,3.15 1.575,2.445 1.575,1.575 1.575,0.705 0.87,0 0,0" style="fill:#0e2e3d;fill-opacity:1;fill-rule:nonzero;stroke:none" id="path798"/></g><g id="g800" transform="translate(520.6338,174.3574)"><path d="m 0,0 h -50.371 c -0.869,0 -1.575,0.705 -1.575,1.575 0,0.87 0.706,1.575 1.575,1.575 H 0 C 0.87,3.15 1.575,2.445 1.575,1.575 1.575,0.705 0.87,0 0,0" style="fill:#0e2e3d;fill-opacity:1;fill-rule:nonzero;stroke:none" id="path802"/></g><g id="g804" transform="translate(640.3066,47.5488)"><path d="m 0,0 -28.299,123.86 h 10.578 L 4.191,0 C 4.06,-2.659 0.133,-2.659 0,0" style="fill:#054b6b;fill-opacity:1;fill-rule:nonzero;stroke:none" id="path806"/></g><g id="g808" transform="translate(354.6318,47.5488)"><path d="m 0,0 -28.299,123.86 h 10.578 L 4.191,0 C 4.059,-2.659 0.132,-2.659 0,0" style="fill:#054b6b;fill-opacity:1;fill-rule:nonzero;stroke:none" id="path810"/></g><g id="g812" transform="translate(242.7285,47.5488)"><path d="M 0,0 28.299,123.86 H 17.721 L -4.191,0 C -4.06,-2.659 -0.133,-2.659 0,0" style="fill:#badce7;fill-opacity:1;fill-rule:nonzero;stroke:none" id="path814"/></g><g id="g816" transform="translate(514.54,47.5488)"><path d="M 0,0 28.299,123.86 H 17.721 L -4.191,0 C -4.059,-2.659 -0.133,-2.659 0,0" style="fill:#badce7;fill-opacity:1;fill-rule:nonzero;stroke:none" id="path818"/></g><g id="g820" transform="translate(241.085,168.4619)"><path d="m 0,0 h 403.678 c 1.407,0 2.548,1.141 2.548,2.548 v 0.799 c 0,1.407 -1.141,2.549 -2.548,2.549 H 0 c -1.407,0 -2.548,-1.142 -2.548,-2.549 V 2.548 C -2.548,1.141 -1.407,0 0,0" style="fill:#93c6d4;fill-opacity:1;fill-rule:nonzero;stroke:none" id="path822"/></g><g id="g824" transform="translate(554.5488,168.4619)"><path d="m 0,0 h 89.814 c 1.628,0 2.948,1.319 2.948,2.947 0,1.628 -1.32,2.949 -2.948,2.949 H 0 C -1.628,5.896 -2.947,4.575 -2.947,2.947 -2.947,1.319 -1.628,0 0,0" style="fill:#7ebac6;fill-opacity:1;fill-rule:nonzero;stroke:none" id="path826"/></g><g id="g828" transform="translate(326.9473,177.5078)"><path d="m 0,0 h 50.685 l 12.143,33.363 c 0.516,1.417 -0.533,2.915 -2.041,2.915 H 14.726 c -0.913,0 -1.729,-0.571 -2.041,-1.428 z" style="fill:#0e2e3d;fill-opacity:1;fill-rule:nonzero;stroke:none" id="path830"/></g><g id="g832" transform="translate(296.8223,174.3574)"><path d="m 0,0 h 50.371 c 0.87,0 1.575,0.705 1.575,1.575 0,0.87 -0.705,1.575 -1.575,1.575 H 0 C -0.869,3.15 -1.575,2.445 -1.575,1.575 -1.575,0.705 -0.869,0 0,0" style="fill:#0e2e3d;fill-opacity:1;fill-rule:nonzero;stroke:none" id="path834"/></g><g id="g836" transform="translate(327.1045,174.3574)"><path d="m 0,0 h 50.37 c 0.87,0 1.575,0.705 1.575,1.575 0,0.87 -0.705,1.575 -1.575,1.575 H 0 C -0.87,3.15 -1.575,2.445 -1.575,1.575 -1.575,0.705 -0.87,0 0,0" style="fill:#0e2e3d;fill-opacity:1;fill-rule:nonzero;stroke:none" id="path838"/></g></g></g></g></svg>